<svg xmlns="http://www.w3.org/2000/svg" width="256" height="256" viewBox="0 0 29 29"><path fill="#FFF" d="M7 0h1v1H7Zm5 0h1v1h-1Zm4 0h1v1h-1Zm1 0h1v1h-1Zm2 0h1v1h-1Zm2 0h1v1h-1ZM1 1h1v1H1Zm1 0h1v1H2Zm1 0h1v1H3Zm1 0h1v1H4Zm1 0h1v1H5Zm2 0h1v1H7Zm1 0h1v1H8Zm1 0h1v1H9Zm1 0h1v1h-1Zm6 0h1v1h-1Zm2 0h1v1h-1Zm2 0h1v1h-1Zm1 0h1v1h-1Zm2 0h1v1h-1Zm1 0h1v1h-1Zm1 0h1v1h-1Zm1 0h1v1h-1Zm1 0h1v1h-1ZM1 2h1v1H1Zm4 0h1v1H5Zm2 0h1v1H7Zm1 0h1v1H8Zm2 0h1v1h-1Zm2 0h1v1h-1Zm3 0h1v1h-1Zm1 0h1v1h-1Zm1 0h1v1h-1Zm4 0h1v1h-1Zm2 0h1v1h-1Zm4 0h1v1h-1ZM1 3h1v1H1Zm4 0h1v1H5Zm2 0h1v1H7Zm1 0h1v1H8Zm1 0h1v1H9Zm3 0h1v1h-1Zm1 0h1v1h-1Zm5 0h1v1h-1Zm1 0h1v1h-1Zm2 0h1v1h-1Zm2 0h1v1h-1Zm4 0h1v1h-1ZM1 4h1v1H1Zm4 0h1v1H5Zm2 0h1v1H7Zm1 0h1v1H8Zm1 0h1v1H9Zm5 0h1v1h-1Zm2 0h1v1h-1Zm4 0h1v1h-1Zm1 0h1v1h-1Zm2 0h1v1h-1Zm4 0h1v1h-1ZM1 5h1v1H1Zm1 0h1v1H2Zm1 0h1v1H3Zm1 0h1v1H4Zm1 0h1v1H5Zm2 0h1v1H7Zm1 0h1v1H8Zm2 0h1v1h-1Zm2 0h1v1h-1Zm3 0h1v1h-1Zm4 0h1v1h-1Zm2 0h1v1h-1Zm2 0h1v1h-1Zm1 0h1v1h-1Zm1 0h1v1h-1Zm1 0h1v1h-1Zm1 0h1v1h-1ZM7 6h1v1H7Zm2 0h1v1H9Zm2 0h1v1h-1Zm2 0h1v1h-1Zm2 0h1v1h-1Zm2 0h1v1h-1Zm2 0h1v1h-1Zm2 0h1v1h-1ZM0 7h1v1H0Zm1 0h1v1H1Zm1 0h1v1H2Zm1 0h1v1H3Zm1 0h1v1H4Zm1 0h1v1H5Zm1 0h1v1H6Zm1 0h1v1H7Zm3 0h1v1h-1Zm1 0h1v1h-1Zm2 0h1v1h-1Zm2 0h1v1h-1Zm2 0h1v1h-1Zm1 0h1v1h-1Zm1 0h1v1h-1Zm2 0h1v1h-1Zm1 0h1v1h-1Zm1 0h1v1h-1Zm1 0h1v1h-1Zm1 0h1v1h-1Zm1 0h1v1h-1Zm1 0h1v1h-1Zm1 0h1v1h-1ZM2 8h1v1H2Zm3 0h1v1H5Zm2 0h1v1H7Zm1 0h1v1H8Zm2 0h1v1h-1Zm1 0h1v1h-1Zm7 0h1v1h-1Zm2 0h1v1h-1Zm1 0h1v1h-1Zm2 0h1v1h-1Zm1 0h1v1h-1Zm1 0h1v1h-1Zm1 0h1v1h-1Zm1 0h1v1h-1ZM0 9h1v1H0Zm1 0h1v1H1Zm1 0h1v1H2Zm1 0h1v1H3Zm1 0h1v1H4Zm2 0h1v1H6Zm1 0h1v1H7Zm1 0h1v1H8Zm1 0h1v1H9Zm2 0h1v1h-1Zm1 0h1v1h-1Zm1 0h1v1h-1Zm3 0h1v1h-1Zm1 0h1v1h-1Zm1 0h1v1h-1Zm2 0h1v1h-1Zm2 0h1v1h-1Zm3 0h1v1h-1Zm3 0h1v1h-1ZM2 10h1v1H2Zm1 0h1v1H3Zm5 0h1v1H8Zm2 0h1v1h-1Zm1 0h1v1h-1Zm2 0h1v1h-1Zm6 0h1v1h-1Zm1 0h1v1h-1Zm2 0h1v1h-1Zm1 0h1v1h-1Zm2 0h1v1h-1Zm2 0h1v1h-1Zm1 0h1v1h-1ZM0 11h1v1H0Zm1 0h1v1H1Zm4 0h1v1H5Zm1 0h1v1H6Zm2 0h1v1H8Zm1 0h1v1H9Zm1 0h1v1h-1Zm1 0h1v1h-1Zm1 0h1v1h-1Zm1 0h1v1h-1Zm2 0h1v1h-1Zm4 0h1v1h-1Zm1 0h1v1h-1Zm1 0h1v1h-1Zm1 0h1v1h-1Zm1 0h1v1h-1Zm3 0h1v1h-1Zm1 0h1v1h-1ZM2 12h1v1H2Zm2 0h1v1H4Zm4 0h1v1H8Zm3 0h1v1h-1Zm1 0h1v1h-1Zm5 0h1v1h-1Zm1 0h1v1h-1Zm1 0h1v1h-1Zm2 0h1v1h-1Zm3 0h1v1h-1Zm1 0h1v1h-1Zm1 0h1v1h-1Zm1 0h1v1h-1ZM0 13h1v1H0Zm5 0h1v1H5Zm1 0h1v1H6Zm1 0h1v1H7Zm2 0h1v1H9Zm2 0h1v1h-1Zm2 0h1v1h-1Zm1 0h1v1h-1Zm3 0h1v1h-1Zm1 0h1v1h-1Zm1 0h1v1h-1Zm1 0h1v1h-1Zm1 0h1v1h-1ZM0 14h1v1H0Zm1 0h1v1H1Zm1 0h1v1H2Zm2 0h1v1H4Zm3 0h1v1H7Zm3 0h1v1h-1Zm1 0h1v1h-1Zm1 0h1v1h-1Zm1 0h1v1h-1Zm3 0h1v1h-1Zm1 0h1v1h-1Zm3 0h1v1h-1Zm3 0h1v1h-1Zm1 0h1v1h-1Zm1 0h1v1h-1Zm2 0h1v1h-1ZM2 15h1v1H2Zm1 0h1v1H3Zm2 0h1v1H5Zm1 0h1v1H6Zm1 0h1v1H7Zm4 0h1v1h-1Zm5 0h1v1h-1Zm1 0h1v1h-1Zm3 0h1v1h-1Zm4 0h1v1h-1Zm1 0h1v1h-1Zm2 0h1v1h-1ZM0 16h1v1H0Zm1 0h1v1H1Zm1 0h1v1H2Zm1 0h1v1H3Zm5 0h1v1H8Zm1 0h1v1H9Zm1 0h1v1h-1Zm3 0h1v1h-1Zm1 0h1v1h-1Zm1 0h1v1h-1Zm1 0h1v1h-1Zm1 0h1v1h-1Zm2 0h1v1h-1Zm1 0h1v1h-1Zm1 0h1v1h-1Zm1 0h1v1h-1Zm2 0h1v1h-1Zm2 0h1v1h-1Zm1 0h1v1h-1Zm1 0h1v1h-1ZM1 17h1v1H1Zm3 0h1v1H4Zm1 0h1v1H5Zm1 0h1v1H6Zm1 0h1v1H7Zm2 0h1v1H9Zm3 0h1v1h-1Zm1 0h1v1h-1Zm1 0h1v1h-1Zm2 0h1v1h-1Zm1 0h1v1h-1Zm4 0h1v1h-1Zm1 0h1v1h-1Zm1 0h1v1h-1Zm2 0h1v1h-1Zm3 0h1v1h-1ZM3 18h1v1H3Zm2 0h1v1H5Zm2 0h1v1H7Zm1 0h1v1H8Zm1 0h1v1H9Zm2 0h1v1h-1Zm6 0h1v1h-1Zm1 0h1v1h-1Zm3 0h1v1h-1Zm1 0h1v1h-1Zm1 0h1v1h-1Zm3 0h1v1h-1Zm1 0h1v1h-1ZM2 19h1v1H2Zm2 0h1v1H4Zm1 0h1v1H5Zm1 0h1v1H6Zm3 0h1v1H9Zm1 0h1v1h-1Zm2 0h1v1h-1Zm2 0h1v1h-1Zm1 0h1v1h-1Zm2 0h1v1h-1Zm1 0h1v1h-1Zm1 0h1v1h-1Zm2 0h1v1h-1Zm1 0h1v1h-1Zm5 0h1v1h-1Zm1 0h1v1h-1ZM4 20h1v1H4Zm1 0h1v1H5Zm2 0h1v1H7Zm1 0h1v1H8Zm2 0h1v1h-1Zm2 0h1v1h-1Zm2 0h1v1h-1Zm1 0h1v1h-1Zm3 0h1v1h-1Zm10 0h1v1h-1ZM0 21h1v1H0Zm1 0h1v1H1Zm1 0h1v1H2Zm1 0h1v1H3Zm1 0h1v1H4Zm1 0h1v1H5Zm1 0h1v1H6Zm1 0h1v1H7Zm4 0h1v1h-1Zm3 0h1v1h-1Zm2 0h1v1h-1Zm1 0h1v1h-1Zm4 0h1v1h-1Zm1 0h1v1h-1Zm1 0h1v1h-1Zm3 0h1v1h-1Zm1 0h1v1h-1Zm1 0h1v1h-1ZM7 22h1v1H7Zm1 0h1v1H8Zm1 0h1v1H9Zm3 0h1v1h-1Zm2 0h1v1h-1Zm2 0h1v1h-1Zm2 0h1v1h-1Zm3 0h1v1h-1Zm2 0h1v1h-1Zm3 0h1v1h-1Zm1 0h1v1h-1Zm1 0h1v1h-1ZM1 23h1v1H1Zm1 0h1v1H2Zm1 0h1v1H3Zm1 0h1v1H4Zm1 0h1v1H5Zm2 0h1v1H7Zm1 0h1v1H8Zm1 0h1v1H9Zm5 0h1v1h-1Zm2 0h1v1h-1Zm5 0h1v1h-1Zm1 0h1v1h-1Zm1 0h1v1h-1Zm2 0h1v1h-1Zm1 0h1v1h-1Zm2 0h1v1h-1ZM1 24h1v1H1Zm4 0h1v1H5Zm2 0h1v1H7Zm7 0h1v1h-1Zm1 0h1v1h-1Zm2 0h1v1h-1Zm1 0h1v1h-1Zm8 0h1v1h-1ZM1 25h1v1H1Zm4 0h1v1H5Zm2 0h1v1H7Zm3 0h1v1h-1Zm1 0h1v1h-1Zm1 0h1v1h-1Zm7 0h1v1h-1Zm3 0h1v1h-1Zm1 0h1v1h-1Zm1 0h1v1h-1Zm1 0h1v1h-1Zm1 0h1v1h-1Zm1 0h1v1h-1ZM1 26h1v1H1Zm4 0h1v1H5Zm2 0h1v1H7Zm1 0h1v1H8Zm2 0h1v1h-1Zm4 0h1v1h-1Zm2 0h1v1h-1Zm2 0h1v1h-1Zm1 0h1v1h-1Zm1 0h1v1h-1Zm1 0h1v1h-1Zm1 0h1v1h-1Zm3 0h1v1h-1ZM1 27h1v1H1Zm1 0h1v1H2Zm1 0h1v1H3Zm1 0h1v1H4Zm1 0h1v1H5Zm2 0h1v1H7Zm3 0h1v1h-1Zm2 0h1v1h-1Zm1 0h1v1h-1Zm1 0h1v1h-1Zm2 0h1v1h-1Zm1 0h1v1h-1Zm1 0h1v1h-1Zm1 0h1v1h-1Zm1 0h1v1h-1Zm1 0h1v1h-1Zm3 0h1v1h-1Zm3 0h1v1h-1ZM7 28h1v1H7Zm3 0h1v1h-1Zm1 0h1v1h-1Zm1 0h1v1h-1Zm1 0h1v1h-1Zm4 0h1v1h-1Zm1 0h1v1h-1Zm3 0h1v1h-1Zm2 0h1v1h-1Zm2 0h1v1h-1Zm1 0h1v1h-1Zm1 0h1v1h-1Zm1 0h1v1h-1Z"/><path d="M0 0h1v1H0Zm1 0h1v1H1Zm1 0h1v1H2Zm1 0h1v1H3Zm1 0h1v1H4Zm1 0h1v1H5Zm1 0h1v1H6Zm2 0h1v1H8Zm1 0h1v1H9Zm1 0h1v1h-1Zm1 0h1v1h-1Zm2 0h1v1h-1Zm1 0h1v1h-1Zm1 0h1v1h-1Zm3 0h1v1h-1Zm2 0h1v1h-1Zm2 0h1v1h-1Zm1 0h1v1h-1Zm1 0h1v1h-1Zm1 0h1v1h-1Zm1 0h1v1h-1Zm1 0h1v1h-1Zm1 0h1v1h-1ZM0 1h1v1H0Zm6 0h1v1H6Zm5 0h1v1h-1Zm1 0h1v1h-1Zm1 0h1v1h-1Zm1 0h1v1h-1Zm1 0h1v1h-1Zm2 0h1v1h-1Zm2 0h1v1h-1Zm3 0h1v1h-1Zm6 0h1v1h-1ZM0 2h1v1H0Zm2 0h1v1H2Zm1 0h1v1H3Zm1 0h1v1H4Zm2 0h1v1H6Zm3 0h1v1H9Zm2 0h1v1h-1Zm2 0h1v1h-1Zm1 0h1v1h-1Zm4 0h1v1h-1Zm1 0h1v1h-1Zm1 0h1v1h-1Zm2 0h1v1h-1Zm2 0h1v1h-1Zm1 0h1v1h-1Zm1 0h1v1h-1Zm2 0h1v1h-1ZM0 3h1v1H0Zm2 0h1v1H2Zm1 0h1v1H3Zm1 0h1v1H4Zm2 0h1v1H6Zm4 0h1v1h-1Zm1 0h1v1h-1Zm3 0h1v1h-1Zm1 0h1v1h-1Zm1 0h1v1h-1Zm1 0h1v1h-1Zm3 0h1v1h-1Zm2 0h1v1h-1Zm2 0h1v1h-1Zm1 0h1v1h-1Zm1 0h1v1h-1Zm2 0h1v1h-1ZM0 4h1v1H0Zm2 0h1v1H2Zm1 0h1v1H3Zm1 0h1v1H4Zm2 0h1v1H6Zm4 0h1v1h-1Zm1 0h1v1h-1Zm1 0h1v1h-1Zm1 0h1v1h-1Zm2 0h1v1h-1Zm2 0h1v1h-1Zm1 0h1v1h-1Zm1 0h1v1h-1Zm3 0h1v1h-1Zm2 0h1v1h-1Zm1 0h1v1h-1Zm1 0h1v1h-1Zm2 0h1v1h-1ZM0 5h1v1H0Zm6 0h1v1H6Zm3 0h1v1H9Zm2 0h1v1h-1Zm2 0h1v1h-1Zm1 0h1v1h-1Zm2 0h1v1h-1Zm1 0h1v1h-1Zm1 0h1v1h-1Zm2 0h1v1h-1Zm2 0h1v1h-1Zm6 0h1v1h-1ZM0 6h1v1H0Zm1 0h1v1H1Zm1 0h1v1H2Zm1 0h1v1H3Zm1 0h1v1H4Zm1 0h1v1H5Zm1 0h1v1H6Zm2 0h1v1H8Zm2 0h1v1h-1Zm2 0h1v1h-1Zm2 0h1v1h-1Zm2 0h1v1h-1Zm2 0h1v1h-1Zm2 0h1v1h-1Zm2 0h1v1h-1Zm1 0h1v1h-1Zm1 0h1v1h-1Zm1 0h1v1h-1Zm1 0h1v1h-1Zm1 0h1v1h-1Zm1 0h1v1h-1ZM8 7h1v1H8Zm1 0h1v1H9Zm3 0h1v1h-1Zm2 0h1v1h-1Zm2 0h1v1h-1Zm4 0h1v1h-1ZM0 8h1v1H0Zm1 0h1v1H1Zm2 0h1v1H3Zm1 0h1v1H4Zm2 0h1v1H6Zm3 0h1v1H9Zm3 0h1v1h-1Zm1 0h1v1h-1Zm1 0h1v1h-1Zm1 0h1v1h-1Zm1 0h1v1h-1Zm1 0h1v1h-1Zm2 0h1v1h-1Zm3 0h1v1h-1Zm6 0h1v1h-1ZM5 9h1v1H5Zm5 0h1v1h-1Zm4 0h1v1h-1Zm1 0h1v1h-1Zm4 0h1v1h-1Zm2 0h1v1h-1Zm2 0h1v1h-1Zm1 0h1v1h-1Zm2 0h1v1h-1Zm1 0h1v1h-1ZM0 10h1v1H0Zm1 0h1v1H1Zm3 0h1v1H4Zm1 0h1v1H5Zm1 0h1v1H6Zm1 0h1v1H7Zm2 0h1v1H9Zm3 0h1v1h-1Zm2 0h1v1h-1Zm1 0h1v1h-1Zm1 0h1v1h-1Zm1 0h1v1h-1Zm1 0h1v1h-1Zm3 0h1v1h-1Zm3 0h1v1h-1Zm2 0h1v1h-1ZM2 11h1v1H2Zm1 0h1v1H3Zm1 0h1v1H4Zm3 0h1v1H7Zm7 0h1v1h-1Zm2 0h1v1h-1Zm1 0h1v1h-1Zm1 0h1v1h-1Zm6 0h1v1h-1Zm1 0h1v1h-1Zm3 0h1v1h-1ZM0 12h1v1H0Zm1 0h1v1H1Zm2 0h1v1H3Zm2 0h1v1H5Zm1 0h1v1H6Zm1 0h1v1H7Zm2 0h1v1H9Zm1 0h1v1h-1Zm3 0h1v1h-1Zm1 0h1v1h-1Zm1 0h1v1h-1Zm1 0h1v1h-1Zm4 0h1v1h-1Zm2 0h1v1h-1Zm1 0h1v1h-1Zm5 0h1v1h-1ZM1 13h1v1H1Zm1 0h1v1H2Zm1 0h1v1H3Zm1 0h1v1H4Zm4 0h1v1H8Zm2 0h1v1h-1Zm2 0h1v1h-1Zm3 0h1v1h-1Zm1 0h1v1h-1Zm6 0h1v1h-1Zm1 0h1v1h-1Zm1 0h1v1h-1Zm1 0h1v1h-1Zm1 0h1v1h-1Zm1 0h1v1h-1Zm1 0h1v1h-1ZM3 14h1v1H3Zm2 0h1v1H5Zm1 0h1v1H6Zm2 0h1v1H8Zm1 0h1v1H9Zm5 0h1v1h-1Zm1 0h1v1h-1Zm3 0h1v1h-1Zm1 0h1v1h-1Zm2 0h1v1h-1Zm1 0h1v1h-1Zm4 0h1v1h-1Zm2 0h1v1h-1ZM0 15h1v1H0Zm1 0h1v1H1Zm3 0h1v1H4Zm4 0h1v1H8Zm1 0h1v1H9Zm1 0h1v1h-1Zm2 0h1v1h-1Zm1 0h1v1h-1Zm1 0h1v1h-1Zm1 0h1v1h-1Zm3 0h1v1h-1Zm1 0h1v1h-1Zm2 0h1v1h-1Zm1 0h1v1h-1Zm1 0h1v1h-1Zm3 0h1v1h-1Zm2 0h1v1h-1ZM4 16h1v1H4Zm1 0h1v1H5Zm1 0h1v1H6Zm1 0h1v1H7Zm4 0h1v1h-1Zm1 0h1v1h-1Zm6 0h1v1h-1Zm5 0h1v1h-1Zm2 0h1v1h-1ZM0 17h1v1H0Zm2 0h1v1H2Zm1 0h1v1H3Zm5 0h1v1H8Zm2 0h1v1h-1Zm1 0h1v1h-1Zm4 0h1v1h-1Zm3 0h1v1h-1Zm1 0h1v1h-1Zm1 0h1v1h-1Zm4 0h1v1h-1Zm2 0h1v1h-1Zm1 0h1v1h-1ZM0 18h1v1H0Zm1 0h1v1H1Zm1 0h1v1H2Zm2 0h1v1H4Zm2 0h1v1H6Zm4 0h1v1h-1Zm2 0h1v1h-1Zm1 0h1v1h-1Zm1 0h1v1h-1Zm1 0h1v1h-1Zm1 0h1v1h-1Zm3 0h1v1h-1Zm1 0h1v1h-1Zm4 0h1v1h-1Zm1 0h1v1h-1Zm3 0h1v1h-1ZM0 19h1v1H0Zm1 0h1v1H1Zm2 0h1v1H3Zm4 0h1v1H7Zm1 0h1v1H8Zm3 0h1v1h-1Zm2 0h1v1h-1Zm3 0h1v1h-1Zm4 0h1v1h-1Zm3 0h1v1h-1Zm1 0h1v1h-1Zm1 0h1v1h-1Zm1 0h1v1h-1ZM0 20h1v1H0Zm1 0h1v1H1Zm1 0h1v1H2Zm1 0h1v1H3Zm3 0h1v1H6Zm3 0h1v1H9Zm2 0h1v1h-1Zm2 0h1v1h-1Zm3 0h1v1h-1Zm1 0h1v1h-1Zm2 0h1v1h-1Zm1 0h1v1h-1Zm1 0h1v1h-1Zm1 0h1v1h-1Zm1 0h1v1h-1Zm1 0h1v1h-1Zm1 0h1v1h-1Zm1 0h1v1h-1Zm1 0h1v1h-1ZM8 21h1v1H8Zm1 0h1v1H9Zm1 0h1v1h-1Zm2 0h1v1h-1Zm1 0h1v1h-1Zm2 0h1v1h-1Zm3 0h1v1h-1Zm1 0h1v1h-1Zm1 0h1v1h-1Zm4 0h1v1h-1Zm1 0h1v1h-1ZM0 22h1v1H0Zm1 0h1v1H1Zm1 0h1v1H2Zm1 0h1v1H3Zm1 0h1v1H4Zm1 0h1v1H5Zm1 0h1v1H6Zm4 0h1v1h-1Zm1 0h1v1h-1Zm2 0h1v1h-1Zm2 0h1v1h-1Zm2 0h1v1h-1Zm2 0h1v1h-1Zm1 0h1v1h-1Zm2 0h1v1h-1Zm2 0h1v1h-1Zm1 0h1v1h-1ZM0 23h1v1H0Zm6 0h1v1H6Zm4 0h1v1h-1Zm1 0h1v1h-1Zm1 0h1v1h-1Zm1 0h1v1h-1Zm2 0h1v1h-1Zm2 0h1v1h-1Zm1 0h1v1h-1Zm1 0h1v1h-1Zm1 0h1v1h-1Zm4 0h1v1h-1Zm3 0h1v1h-1ZM0 24h1v1H0Zm2 0h1v1H2Zm1 0h1v1H3Zm1 0h1v1H4Zm2 0h1v1H6Zm2 0h1v1H8Zm1 0h1v1H9Zm1 0h1v1h-1Zm1 0h1v1h-1Zm1 0h1v1h-1Zm1 0h1v1h-1Zm3 0h1v1h-1Zm3 0h1v1h-1Zm1 0h1v1h-1Zm1 0h1v1h-1Zm1 0h1v1h-1Zm1 0h1v1h-1Zm1 0h1v1h-1Zm1 0h1v1h-1Zm2 0h1v1h-1Zm1 0h1v1h-1ZM0 25h1v1H0Zm2 0h1v1H2Zm1 0h1v1H3Zm1 0h1v1H4Zm2 0h1v1H6Zm2 0h1v1H8Zm1 0h1v1H9Zm4 0h1v1h-1Zm1 0h1v1h-1Zm1 0h1v1h-1Zm1 0h1v1h-1Zm1 0h1v1h-1Zm1 0h1v1h-1Zm2 0h1v1h-1Zm1 0h1v1h-1Zm7 0h1v1h-1ZM0 26h1v1H0Zm2 0h1v1H2Zm1 0h1v1H3Zm1 0h1v1H4Zm2 0h1v1H6Zm3 0h1v1H9Zm2 0h1v1h-1Zm1 0h1v1h-1Zm1 0h1v1h-1Zm2 0h1v1h-1Zm2 0h1v1h-1Zm6 0h1v1h-1Zm1 0h1v1h-1Zm2 0h1v1h-1Zm1 0h1v1h-1Zm1 0h1v1h-1ZM0 27h1v1H0Zm6 0h1v1H6Zm2 0h1v1H8Zm1 0h1v1H9Zm2 0h1v1h-1Zm4 0h1v1h-1Zm7 0h1v1h-1Zm1 0h1v1h-1Zm2 0h1v1h-1Zm1 0h1v1h-1Zm2 0h1v1h-1ZM0 28h1v1H0Zm1 0h1v1H1Zm1 0h1v1H2Zm1 0h1v1H3Zm1 0h1v1H4Zm1 0h1v1H5Zm1 0h1v1H6Zm2 0h1v1H8Zm1 0h1v1H9Zm5 0h1v1h-1Zm1 0h1v1h-1Zm1 0h1v1h-1Zm3 0h1v1h-1Zm1 0h1v1h-1Zm2 0h1v1h-1Zm2 0h1v1h-1Z"/></svg>